<svg xmlns="http://www.w3.org/2000/svg" viewBox="0 0 250 250"><g fill="#e32213"><path d="M242.67 82.74a30.69 30.69 0 0 1-3.53 2.84 20.63 20.63 0 0 1 5.62 3.52q-.97-3.22-2.09-6.36zM211 95.18h-5.66v25.13q2.42.14 5.73.14 20 0 20-12.7a10.29 10.29 0 0 0-5.32-9.36q-5.34-3.21-14.75-3.21zM205.36 58.1v20.16h6.7A22.2 22.2 0 0 0 222.7 76q5.25-2.76 5.25-8.15 0-10-16.23-10a63.47 63.47 0 0 0-6.36.25z"/><path d="M32.94 41.6h21.41l29.77 79.54a19.57 19.57 0 0 0 3.32.21 15.62 15.62 0 0 0 2.37-.14l29.75-79.61H141l29.76 79.54a37.93 37.93 0 0 0 5.47.24 42.92 42.92 0 0 0 7.19-.45 1.11 1.11 0 0 0 .41.35V57h-12.38V41.46q6.56 0 19.75-.35t19.8-.34c2.31 0 4.51.1 6.64.28A125 125 0 0 0 0 121.36a23 23 0 0 0 3.17-.15z"/><path d="M122.05 92.41h15.82q-2.76-7-7.94-21.13l-.62 1.59zM35.43 92.41h15.81q-2.76-7-7.94-21.13l-.62 1.59zM99.68 162.82a7.73 7.73 0 0 0-6.44 3.24 12.48 12.48 0 0 0-2.44 6.15h16.85a10.76 10.76 0 0 0-1.57-6 7 7 0 0 0-6.4-3.39zM179.58 162.82a7.73 7.73 0 0 0-6.44 3.24 12.49 12.49 0 0 0-2.43 6.15h16.85a10.78 10.78 0 0 0-1.57-6 7 7 0 0 0-6.41-3.39zM70.74 162.82a7.73 7.73 0 0 0-6.44 3.24 12.5 12.5 0 0 0-2.44 6.15h16.86a10.76 10.76 0 0 0-1.57-6 7 7 0 0 0-6.41-3.39z"/><path d="M250 125c0-1.26 0-2.51-.06-3.75a27.49 27.49 0 0 1-11.5 10.45q-12.16 6.35-31 5.94l-36-.76H140v-15.47q4.83 0 7.87-.14l-4.35-11.74h-27.13l-4.21 11.81q1.52.07 8 .07v15.47h-66.8v-15.47q4.83 0 7.87-.14l-4.35-11.73H29.76l-4.21 11.81q1.52.07 8 .07v15.47H.51a124.53 124.53 0 0 0 4.26 22.58h5.06l.29 5.09h.16a10.9 10.9 0 0 1 10-5.83 9.2 9.2 0 0 1 5.61 1.79 9.67 9.67 0 0 1 3.36 4.58h.13A12.74 12.74 0 0 1 33 161a11.33 11.33 0 0 1 7-2.24 9.27 9.27 0 0 1 6.83 2.76q3.65 3.59 3.65 11v12.94q0 1.44 1.79 1.89a20 20 0 0 0 3.94.26v3.59H44.75v-17.96q0-9.77-6.86-9.77a6.74 6.74 0 0 0-5.32 2.5 8.33 8.33 0 0 0-2 5.57v13.9q0 1.44 1.79 1.89a19.73 19.73 0 0 0 3.94.26v3.59H24.92v-19a10.47 10.47 0 0 0-1.67-6.25 5.74 5.74 0 0 0-4.93-2.43 6.78 6.78 0 0 0-4.58 1.79 9 9 0 0 0-3 6.79v3.7a125.07 125.07 0 0 0 223.79 9.61l-6.76-9.43-2.95 3.3v6.22q0 1.44 1.79 1.89a20 20 0 0 0 3.94.26v3.59H213.3v-3.59a19.76 19.76 0 0 0 3.94-.26q1.79-.45 1.79-1.89v-35.12q0-1.44-1.79-1.89a17.65 17.65 0 0 0-3.94-.29v-3.58h11.47V174h.13q1.44-2 2.79-3.62l6.22-7.27q-.8-.06-2.63-.06v-3.59h13.14v2.59A124.94 124.94 0 0 0 250 125zM84 176.34H61.8q.13 5.19 2.95 8.11t7.95 2.92a22.57 22.57 0 0 0 8.78-1.63l1 4.13a24.85 24.85 0 0 1-10.57 2.05q-7.24 0-11.47-4.45t-4.13-11.63a18.65 18.65 0 0 1 3.78-11.95 13.48 13.48 0 0 1 11.12-5.19q6.92 0 10.45 5.32a17.13 17.13 0 0 1 2.66 9.64 11.19 11.19 0 0 1-.32 2.68zm28.94 0h-22.2q.13 5.19 2.95 8.11t7.95 2.92a22.58 22.58 0 0 0 8.78-1.63l1 4.13a24.84 24.84 0 0 1-10.57 2.05q-7.24 0-11.47-4.45t-4.13-11.63A18.65 18.65 0 0 1 89 163.88a13.48 13.48 0 0 1 11.12-5.19q6.92 0 10.45 5.32a17.13 17.13 0 0 1 2.66 9.64 11.19 11.19 0 0 1-.23 2.69zm13.62 11a20 20 0 0 0 3.94.26v3.59h-17.16v-3.59a19.72 19.72 0 0 0 3.94-.26q1.79-.45 1.79-1.89v-16.12-4.58q-.42-1.7-5.7-1.7v-3.59h10.54l.23 6.21h.19a10.87 10.87 0 0 1 3.52-5.06 8.41 8.41 0 0 1 5.32-1.89 7.32 7.32 0 0 1 1.6.16v5.45a8.54 8.54 0 0 0-2-.19 6.94 6.94 0 0 0-5.08 2 9.83 9.83 0 0 0-2.68 5.35 15.29 15.29 0 0 0-.22 2.69v11.21q.02 1.49 1.81 1.94zm40.63 3.84h-8.49l-10.93-15.25-2.95 3.3v6.22q0 1.44 1.79 1.89a20 20 0 0 0 3.94.26v3.59H133.4v-3.59a19.74 19.74 0 0 0 3.94-.26q1.79-.45 1.79-1.89v-35.09q0-1.44-1.79-1.89a17.64 17.64 0 0 0-3.94-.29v-3.58h11.47V174h.13q1.44-2 2.79-3.62l6.22-7.27q-.8-.06-2.63-.06v-3.59h13.14V163a17.38 17.38 0 0 0-4.13.32l-1.6 1.7-7 7.43 11 14.67a15.09 15.09 0 0 0 4.45.42zm25.64-14.83h-22.19q.13 5.19 2.95 8.11t7.95 2.92a22.57 22.57 0 0 0 8.78-1.63l1 4.13a24.85 24.85 0 0 1-10.58 2.05q-7.24 0-11.47-4.45t-4.14-11.63a18.65 18.65 0 0 1 3.78-11.95 13.48 13.48 0 0 1 11.09-5.21q6.92 0 10.45 5.32a17.13 17.13 0 0 1 2.66 9.64 11.19 11.19 0 0 1-.23 2.69zm21.76-17.46v5.45a8.53 8.53 0 0 0-2-.19 6.93 6.93 0 0 0-5.08 2 9.82 9.82 0 0 0-2.68 5.35 15.16 15.16 0 0 0-.23 2.69v11.21q0 1.44 1.79 1.89a20 20 0 0 0 3.94.26v3.59h-17.09v-3.59a19.74 19.74 0 0 0 3.94-.26q1.79-.45 1.79-1.89v-16.07-4.58q-.42-1.7-5.7-1.7v-3.59h10.54l.22 6.21h.19a10.88 10.88 0 0 1 3.52-5.06 8.41 8.41 0 0 1 5.32-1.89 7.3 7.3 0 0 1 1.58.16z"/><path d="M238.68 165.07l-7 7.43 5.57 7.46a124.19 124.19 0 0 0 6.8-16.9 16.41 16.41 0 0 0-3.81.32z"/></g></svg>